<mxfile host="app.diagrams.net" modified="2021-02-02T16:53:55.342Z" agent="5.0 (Macintosh; Intel Mac OS X 10_15_6) AppleWebKit/605.1.15 (KHTML, like Gecko) Version/14.0.2 Safari/605.1.15" etag="-HVjXY3THbaIt9bSmiwz" version="14.1.8" type="github">
  <diagram id="pt387bTI_zJMgEDVQk4Z" name="Page-1">
    <mxGraphModel dx="914" dy="649" grid="1" gridSize="10" guides="1" tooltips="1" connect="1" arrows="1" fold="1" page="1" pageScale="1" pageWidth="850" pageHeight="1100" math="0" shadow="0">
      <root>
        <mxCell id="0" />
        <mxCell id="1" parent="0" />
        <mxCell id="x5GTYXMU3bvm0a-iwEAM-1" value="" style="whiteSpace=wrap;html=1;aspect=fixed;" vertex="1" parent="1">
          <mxGeometry x="40" y="90" width="130" height="130" as="geometry" />
        </mxCell>
        <mxCell id="x5GTYXMU3bvm0a-iwEAM-2" value="" style="whiteSpace=wrap;html=1;aspect=fixed;" vertex="1" parent="1">
          <mxGeometry x="220" y="190" width="100" height="100" as="geometry" />
        </mxCell>
        <mxCell id="x5GTYXMU3bvm0a-iwEAM-3" value="" style="whiteSpace=wrap;html=1;aspect=fixed;" vertex="1" parent="1">
          <mxGeometry x="220" y="10" width="90" height="90" as="geometry" />
        </mxCell>
        <mxCell id="x5GTYXMU3bvm0a-iwEAM-4" value="" style="whiteSpace=wrap;html=1;aspect=fixed;" vertex="1" parent="1">
          <mxGeometry x="500" y="60" width="170" height="170" as="geometry" />
        </mxCell>
        <mxCell id="x5GTYXMU3bvm0a-iwEAM-5" value="" style="whiteSpace=wrap;html=1;aspect=fixed;" vertex="1" parent="1">
          <mxGeometry x="510" y="310" width="160" height="160" as="geometry" />
        </mxCell>
        <mxCell id="x5GTYXMU3bvm0a-iwEAM-6" value="" style="whiteSpace=wrap;html=1;aspect=fixed;" vertex="1" parent="1">
          <mxGeometry x="90" y="520" width="140" height="140" as="geometry" />
        </mxCell>
        <mxCell id="x5GTYXMU3bvm0a-iwEAM-7" value="" style="whiteSpace=wrap;html=1;aspect=fixed;" vertex="1" parent="1">
          <mxGeometry x="370" y="520" width="150" height="150" as="geometry" />
        </mxCell>
        <mxCell id="x5GTYXMU3bvm0a-iwEAM-8" value="" style="whiteSpace=wrap;html=1;aspect=fixed;" vertex="1" parent="1">
          <mxGeometry x="680" y="520" width="150" height="150" as="geometry" />
        </mxCell>
        <mxCell id="x5GTYXMU3bvm0a-iwEAM-9" value="" style="whiteSpace=wrap;html=1;aspect=fixed;" vertex="1" parent="1">
          <mxGeometry x="120" y="780" width="110" height="110" as="geometry" />
        </mxCell>
        <mxCell id="x5GTYXMU3bvm0a-iwEAM-10" value="" style="whiteSpace=wrap;html=1;aspect=fixed;" vertex="1" parent="1">
          <mxGeometry x="400" y="770" width="120" height="120" as="geometry" />
        </mxCell>
        <mxCell id="x5GTYXMU3bvm0a-iwEAM-11" value="" style="whiteSpace=wrap;html=1;aspect=fixed;" vertex="1" parent="1">
          <mxGeometry x="720" y="770" width="110" height="110" as="geometry" />
        </mxCell>
        <mxCell id="x5GTYXMU3bvm0a-iwEAM-12" value="" style="endArrow=none;dashed=1;html=1;" edge="1" parent="1">
          <mxGeometry width="50" height="50" relative="1" as="geometry">
            <mxPoint x="170" y="90" as="sourcePoint" />
            <mxPoint x="220" y="40" as="targetPoint" />
          </mxGeometry>
        </mxCell>
        <mxCell id="x5GTYXMU3bvm0a-iwEAM-13" value="" style="endArrow=none;html=1;" edge="1" parent="1">
          <mxGeometry width="50" height="50" relative="1" as="geometry">
            <mxPoint x="170" y="90" as="sourcePoint" />
            <mxPoint x="220" y="40" as="targetPoint" />
          </mxGeometry>
        </mxCell>
        <mxCell id="x5GTYXMU3bvm0a-iwEAM-14" value="" style="endArrow=none;html=1;entryX=0;entryY=0.85;entryDx=0;entryDy=0;entryPerimeter=0;" edge="1" parent="1" target="x5GTYXMU3bvm0a-iwEAM-2">
          <mxGeometry width="50" height="50" relative="1" as="geometry">
            <mxPoint x="170" y="220" as="sourcePoint" />
            <mxPoint x="220" y="170" as="targetPoint" />
          </mxGeometry>
        </mxCell>
        <mxCell id="x5GTYXMU3bvm0a-iwEAM-15" value="" style="endArrow=none;html=1;" edge="1" parent="1" target="x5GTYXMU3bvm0a-iwEAM-4">
          <mxGeometry width="50" height="50" relative="1" as="geometry">
            <mxPoint x="310" y="70" as="sourcePoint" />
            <mxPoint x="360" y="20" as="targetPoint" />
          </mxGeometry>
        </mxCell>
        <mxCell id="x5GTYXMU3bvm0a-iwEAM-16" value="" style="endArrow=none;html=1;" edge="1" parent="1" target="x5GTYXMU3bvm0a-iwEAM-4">
          <mxGeometry width="50" height="50" relative="1" as="geometry">
            <mxPoint x="320" y="260" as="sourcePoint" />
            <mxPoint x="370" y="210" as="targetPoint" />
          </mxGeometry>
        </mxCell>
        <mxCell id="x5GTYXMU3bvm0a-iwEAM-17" value="" style="endArrow=none;html=1;exitX=0.5;exitY=0;exitDx=0;exitDy=0;" edge="1" parent="1" source="x5GTYXMU3bvm0a-iwEAM-5">
          <mxGeometry width="50" height="50" relative="1" as="geometry">
            <mxPoint x="540" y="280" as="sourcePoint" />
            <mxPoint x="590" y="230" as="targetPoint" />
          </mxGeometry>
        </mxCell>
        <mxCell id="x5GTYXMU3bvm0a-iwEAM-18" value="" style="endArrow=none;html=1;exitX=1;exitY=0;exitDx=0;exitDy=0;" edge="1" parent="1" source="x5GTYXMU3bvm0a-iwEAM-6">
          <mxGeometry width="50" height="50" relative="1" as="geometry">
            <mxPoint x="460" y="520" as="sourcePoint" />
            <mxPoint x="510" y="470" as="targetPoint" />
          </mxGeometry>
        </mxCell>
        <mxCell id="x5GTYXMU3bvm0a-iwEAM-19" value="" style="endArrow=none;html=1;exitX=1;exitY=0;exitDx=0;exitDy=0;" edge="1" parent="1" source="x5GTYXMU3bvm0a-iwEAM-7">
          <mxGeometry width="50" height="50" relative="1" as="geometry">
            <mxPoint x="540" y="520" as="sourcePoint" />
            <mxPoint x="590" y="470" as="targetPoint" />
          </mxGeometry>
        </mxCell>
        <mxCell id="x5GTYXMU3bvm0a-iwEAM-20" value="" style="endArrow=none;html=1;exitX=0;exitY=0;exitDx=0;exitDy=0;" edge="1" parent="1" source="x5GTYXMU3bvm0a-iwEAM-8">
          <mxGeometry width="50" height="50" relative="1" as="geometry">
            <mxPoint x="620" y="520" as="sourcePoint" />
            <mxPoint x="670" y="470" as="targetPoint" />
          </mxGeometry>
        </mxCell>
        <mxCell id="x5GTYXMU3bvm0a-iwEAM-21" value="" style="endArrow=none;html=1;exitX=0.5;exitY=0;exitDx=0;exitDy=0;" edge="1" parent="1" source="x5GTYXMU3bvm0a-iwEAM-9">
          <mxGeometry width="50" height="50" relative="1" as="geometry">
            <mxPoint x="130" y="710" as="sourcePoint" />
            <mxPoint x="180" y="660" as="targetPoint" />
          </mxGeometry>
        </mxCell>
        <mxCell id="x5GTYXMU3bvm0a-iwEAM-22" value="" style="endArrow=none;html=1;exitX=0.617;exitY=0;exitDx=0;exitDy=0;exitPerimeter=0;" edge="1" parent="1" source="x5GTYXMU3bvm0a-iwEAM-10">
          <mxGeometry width="50" height="50" relative="1" as="geometry">
            <mxPoint x="425" y="720" as="sourcePoint" />
            <mxPoint x="475" y="670" as="targetPoint" />
          </mxGeometry>
        </mxCell>
        <mxCell id="x5GTYXMU3bvm0a-iwEAM-23" value="" style="endArrow=none;html=1;exitX=0.75;exitY=0;exitDx=0;exitDy=0;" edge="1" parent="1" source="x5GTYXMU3bvm0a-iwEAM-11">
          <mxGeometry width="50" height="50" relative="1" as="geometry">
            <mxPoint x="730" y="720" as="sourcePoint" />
            <mxPoint x="780" y="670" as="targetPoint" />
          </mxGeometry>
        </mxCell>
        <mxCell id="x5GTYXMU3bvm0a-iwEAM-24" value="Home Page" style="text;html=1;strokeColor=none;fillColor=none;align=center;verticalAlign=middle;whiteSpace=wrap;rounded=0;" vertex="1" parent="1">
          <mxGeometry x="60" y="122.5" width="90" height="65" as="geometry" />
        </mxCell>
        <mxCell id="x5GTYXMU3bvm0a-iwEAM-25" value="Signup" style="text;html=1;strokeColor=none;fillColor=none;align=center;verticalAlign=middle;whiteSpace=wrap;rounded=0;" vertex="1" parent="1">
          <mxGeometry x="210" y="25" width="110" height="60" as="geometry" />
        </mxCell>
        <mxCell id="x5GTYXMU3bvm0a-iwEAM-26" value="Login" style="text;html=1;strokeColor=none;fillColor=none;align=center;verticalAlign=middle;whiteSpace=wrap;rounded=0;" vertex="1" parent="1">
          <mxGeometry x="225" y="215" width="90" height="50" as="geometry" />
        </mxCell>
        <mxCell id="x5GTYXMU3bvm0a-iwEAM-27" value="Hybrids Index Page" style="text;html=1;strokeColor=none;fillColor=none;align=center;verticalAlign=middle;whiteSpace=wrap;rounded=0;" vertex="1" parent="1">
          <mxGeometry x="500" y="80" width="180" height="130" as="geometry" />
        </mxCell>
        <mxCell id="x5GTYXMU3bvm0a-iwEAM-28" value="Hybrids Show Page" style="text;html=1;strokeColor=none;fillColor=none;align=center;verticalAlign=middle;whiteSpace=wrap;rounded=0;" vertex="1" parent="1">
          <mxGeometry x="510" y="340" width="160" height="100" as="geometry" />
        </mxCell>
        <mxCell id="x5GTYXMU3bvm0a-iwEAM-29" value="Friends Index Page" style="text;html=1;strokeColor=none;fillColor=none;align=center;verticalAlign=middle;whiteSpace=wrap;rounded=0;" vertex="1" parent="1">
          <mxGeometry x="90" y="550" width="140" height="90" as="geometry" />
        </mxCell>
        <mxCell id="x5GTYXMU3bvm0a-iwEAM-30" value="Places Index Page" style="text;html=1;strokeColor=none;fillColor=none;align=center;verticalAlign=middle;whiteSpace=wrap;rounded=0;" vertex="1" parent="1">
          <mxGeometry x="370" y="550" width="150" height="90" as="geometry" />
        </mxCell>
        <mxCell id="x5GTYXMU3bvm0a-iwEAM-31" value="Motorhomes &lt;br&gt;Index&amp;nbsp;Page" style="text;html=1;strokeColor=none;fillColor=none;align=center;verticalAlign=middle;whiteSpace=wrap;rounded=0;" vertex="1" parent="1">
          <mxGeometry x="690" y="530" width="140" height="130" as="geometry" />
        </mxCell>
        <mxCell id="x5GTYXMU3bvm0a-iwEAM-32" value="Friends&lt;br&gt;Show Page" style="text;html=1;strokeColor=none;fillColor=none;align=center;verticalAlign=middle;whiteSpace=wrap;rounded=0;" vertex="1" parent="1">
          <mxGeometry x="130" y="810" width="90" height="50" as="geometry" />
        </mxCell>
        <mxCell id="x5GTYXMU3bvm0a-iwEAM-33" value="Places&amp;nbsp;&lt;br&gt;Show Page" style="text;html=1;strokeColor=none;fillColor=none;align=center;verticalAlign=middle;whiteSpace=wrap;rounded=0;" vertex="1" parent="1">
          <mxGeometry x="400" y="780" width="120" height="110" as="geometry" />
        </mxCell>
        <mxCell id="x5GTYXMU3bvm0a-iwEAM-34" value="Motorhomes&lt;br&gt;Show Page" style="text;html=1;strokeColor=none;fillColor=none;align=center;verticalAlign=middle;whiteSpace=wrap;rounded=0;" vertex="1" parent="1">
          <mxGeometry x="720" y="770" width="110" height="110" as="geometry" />
        </mxCell>
      </root>
    </mxGraphModel>
  </diagram>
</mxfile>
